<mxfile host="app.diagrams.net" modified="2024-04-24T13:59:39.679Z" agent="Mozilla/5.0 (Windows NT 10.0; Win64; x64) AppleWebKit/537.36 (KHTML, like Gecko) Chrome/123.0.0.0 Safari/537.36 Edg/123.0.0.0" etag="ewMx9cyOAFLD3nBdJUHl" version="24.2.8" type="github">
  <diagram name="Halaman-1" id="04X5M-GQzkgTtIx1SWHA">
    <mxGraphModel dx="1050" dy="691" grid="1" gridSize="10" guides="1" tooltips="1" connect="1" arrows="1" fold="1" page="1" pageScale="1" pageWidth="827" pageHeight="1169" math="0" shadow="0">
      <root>
        <mxCell id="0" />
        <mxCell id="1" parent="0" />
        <mxCell id="99j6RFMBbIGk3FAHvMlb-18" value="" style="ellipse;whiteSpace=wrap;html=1;" vertex="1" parent="1">
          <mxGeometry x="350" y="50" width="90" height="60" as="geometry" />
        </mxCell>
        <mxCell id="99j6RFMBbIGk3FAHvMlb-19" value="" style="ellipse;whiteSpace=wrap;html=1;" vertex="1" parent="1">
          <mxGeometry x="170" y="120" width="90" height="60" as="geometry" />
        </mxCell>
        <mxCell id="99j6RFMBbIGk3FAHvMlb-20" value="" style="ellipse;whiteSpace=wrap;html=1;" vertex="1" parent="1">
          <mxGeometry x="540" y="120" width="90" height="60" as="geometry" />
        </mxCell>
        <mxCell id="99j6RFMBbIGk3FAHvMlb-21" value="" style="ellipse;whiteSpace=wrap;html=1;" vertex="1" parent="1">
          <mxGeometry x="50" y="210" width="90" height="60" as="geometry" />
        </mxCell>
        <mxCell id="99j6RFMBbIGk3FAHvMlb-22" value="" style="ellipse;whiteSpace=wrap;html=1;" vertex="1" parent="1">
          <mxGeometry x="280" y="210" width="90" height="60" as="geometry" />
        </mxCell>
        <mxCell id="99j6RFMBbIGk3FAHvMlb-24" value="" style="ellipse;whiteSpace=wrap;html=1;" vertex="1" parent="1">
          <mxGeometry x="430" y="210" width="90" height="60" as="geometry" />
        </mxCell>
        <mxCell id="99j6RFMBbIGk3FAHvMlb-25" value="" style="ellipse;whiteSpace=wrap;html=1;" vertex="1" parent="1">
          <mxGeometry x="660" y="210" width="90" height="60" as="geometry" />
        </mxCell>
      </root>
    </mxGraphModel>
  </diagram>
</mxfile>
